Coordinates
version=1
nRows=29
nColumns=24
inDegrees=yes

Units are S.I. units (second, meters, Newtons, ...)
Angles are in degrees.

endheader
time	pelvis_tilt	pelvis_list	pelvis_rotation	pelvis_tx	pelvis_ty	pelvis_tz	hip_flexion_r	hip_adduction_r	hip_rotation_r	knee_angle_r	ankle_angle_r	subtalar_angle_r	mtp_angle_r	hip_flexion_l	hip_adduction_l	hip_rotation_l	knee_angle_l	ankle_angle_l	subtalar_angle_l	mtp_angle_l	lumbar_extension	lumbar_bending	lumbar_rotation
      1.17983333	      3.96069842	      7.53196077	     -3.78198670	      0.15444856	      1.02290773	      0.25136974	     11.97385018	     -9.36305038	     -1.84005663	    -65.85627285	      4.45880120	    -18.87139347	     -1.81294304	      3.91089598	     10.95675117	     -0.04892804	    -10.04461025	      0.93761310	    -16.18879522	      5.21285037	     -8.07926056	     -9.27008518	      6.00303066
      1.18400000	      3.93046423	      7.38671456	     -3.73051454	      0.15946219	      1.02362002	      0.25114450	     12.48375522	     -9.09961699	     -1.80320783	    -65.38094759	      4.67858901	    -18.77724510	     -1.84993780	      3.47884439	     10.84427657	      0.12145092	     -9.79600417	      1.03424848	    -16.23591303	      5.17473347	     -8.10644672	     -9.12157236	      5.78778696
      1.18816667	      3.89958863	      7.25458245	     -3.68136969	      0.16451809	      1.02428567	      0.25093711	     12.97957135	     -8.85216719	     -1.76793869	    -64.84937106	      4.89420017	    -18.67437641	     -1.87692968	      3.03572572	     10.74187959	      0.27096132	     -9.52200005	      1.13268404	    -16.26779664	      5.13863710	     -8.10961143	     -8.98773036	      5.58417675
      1.19233333	      3.89269233	      7.13320239	     -3.61781651	      0.16956401	      1.02497328	      0.25072144	     13.43020764	     -8.62487602	     -1.75491006	    -64.25227730	      5.08287794	    -18.54520913	     -1.91021505	      2.55497096	     10.65346280	      0.46641991	     -9.22277335	      1.22256560	    -16.33124831	      5.08106164	     -8.14592458	     -8.87171757	      5.30417595
      1.19650000	      3.87509674	      7.01210985	     -3.55198043	      0.17462379	      1.02559420	      0.25049409	     13.87783341	     -8.40059332	     -1.74692831	    -63.60254025	      5.27929656	    -18.39781061	     -1.93864040	      2.08416915	     10.56304915	      0.64193252	     -8.91972239	      1.30441837	    -16.39123090	      5.00866287	     -8.16587071	     -8.73542681	      5.03696553
      1.20066667	      3.82077243	      6.88598174	     -3.49229959	      0.17968391	      1.02613884	      0.25033023	     14.35173309	     -8.15378902	     -1.71721769	    -62.89432059	      5.45517373	    -18.27086159	     -1.94340073	      1.66539009	     10.45361874	      0.75069503	     -8.63902341	      1.38449615	    -16.37231570	      4.97901205	     -8.14232107	     -8.60338945	      4.90364345
      1.20483333	      3.78753306	      6.75071437	     -3.41105234	      0.18474595	      1.02669825	      0.25013682	     14.77304717	     -7.90789406	     -1.71924485	    -62.11601550	      5.61055199	    -18.11433696	     -1.94482754	      1.21617586	     10.33680332	      0.90103480	     -8.34770710	      1.47400669	    -16.37399402	      4.94392744	     -8.14716553	     -8.46152528	      4.69002608
      1.20900000	      3.79292368	      6.65094862	     -3.32288286	      0.18979498	      1.02723346	      0.24993223	     15.14666341	     -7.71583721	     -1.73734648	    -61.30809521	      5.75755493	    -17.95794444	     -1.94332962	      0.70692139	     10.26385734	      1.11881092	     -8.01346934	      1.55304219	    -16.44653485	      4.86359259	     -8.20564901	     -8.36168747	      4.30453271
      1.21316667	      3.74303757	      6.54209701	     -3.23361361	      0.19485188	      1.02765897	      0.24975487	     15.56435844	     -7.50316566	     -1.74631828	    -60.44735469	      5.88586003	    -17.81188973	     -1.93369366	      0.27079369	     10.17065988	      1.28365468	     -7.70548887	      1.63145995	    -16.47162255	      4.78552849	     -8.19194611	     -8.24795136	      4.05612631
      1.21733333	      3.69307926	      6.42401572	     -3.14705804	      0.19992568	      1.02806209	      0.24959818	     15.95977154	     -7.27947301	     -1.75522282	    -59.52620546	      5.99783681	    -17.67344173	     -1.92546244	     -0.15913613	     10.06055301	      1.38855928	     -7.41008250	      1.71007158	    -16.43544445	      4.75425173	     -8.16847588	     -8.12419393	      3.90797923
      1.22150000	      3.65294434	      6.31766090	     -3.04792453	      0.20499386	      1.02843452	      0.24943852	     16.32753133	     -7.07650191	     -1.78075423	    -58.56134523	      6.09125540	    -17.53489589	     -1.91426707	     -0.60548520	      9.96292451	      1.52987937	     -7.10216202	      1.79608306	    -16.41706353	      4.71932381	     -8.16396289	     -8.01241763	      3.67720223
      1.22566667	      3.64991150	      6.23033870	     -2.94016572	      0.21004193	      1.02879534	      0.24925891	     16.64409458	     -6.90809053	     -1.82540662	    -57.56495020	      6.15760223	    -17.43550517	     -1.88920172	     -1.10768244	      9.89101436	      1.73801014	     -6.75891797	      1.88609764	    -16.46499739	      4.64405015	     -8.21556805	     -7.92901536	      3.26619810
      1.22983333	      3.58784581	      6.13304038	     -2.84213379	      0.21511503	      1.02904143	      0.24911397	     17.00772251	     -6.71940358	     -1.85119124	    -56.51895465	      6.22933169	    -17.30489193	     -1.87553524	     -1.52364331	      9.79589326	      1.84151282	     -6.45926839	      1.95823130	    -16.43068879	      4.61232363	     -8.17667373	     -7.82613616	      3.11152282
      1.23400000	      3.57331312	      6.04476097	     -2.72589388	      0.22017362	      1.02931475	      0.24895362	     17.29929947	     -6.55617143	     -1.91076697	    -55.42934349	      6.24838183	    -17.23449936	     -1.84733660	     -2.00852819	      9.71413339	      2.02676825	     -6.12584909	      2.05984918	    -16.45528995	      4.54481441	     -8.20840574	     -7.73665111	      2.74119589
      1.23816667	      3.53317354	      5.96023042	     -2.61601920	      0.22523636	      1.02950090	      0.24880768	     17.60672152	     -6.39596352	     -1.96149122	    -54.30525149	      6.27301263	    -17.14033625	     -1.81703696	     -2.45596033	      9.63154523	      2.17203159	     -5.80853229	      2.14518393	    -16.45173285	      4.48066431	     -8.20508094	     -7.65043780	      2.47037559
      1.24233333	      3.44915306	      5.87791405	     -2.51038671	      0.23030244	      1.02958163	      0.24868154	     17.94974351	     -6.23345251	     -1.99779132	    -53.14671400	      6.29542415	    -17.03076080	     -1.80051190	     -2.84262817	      9.54511300	      2.27308958	     -5.51481869	      2.21764886	    -16.40514979	      4.44943789	     -8.14839385	     -7.56456481	      2.30158640
      1.24650000	      3.43310920	      5.80498599	     -2.39391932	      0.23535399	      1.02971153	      0.24854829	     18.19959232	     -6.09674597	     -2.06352693	    -51.94956330	      6.26289374	    -16.99890995	     -1.76704126	     -3.31916288	      9.47126367	      2.43939206	     -5.18985965	      2.32871035	    -16.40518297	      4.38573279	     -8.18009213	     -7.49391740	      1.93005429
      1.25066667	      3.36319529	      5.73200298	     -2.28035599	      0.24041952	      1.02972254	      0.24842210	     18.49477189	     -5.95912046	     -2.12338340	    -50.72001419	      6.23477664	    -16.92932273	     -1.73072387	     -3.72494202	      9.39259099	      2.57171076	     -4.88873335	      2.42524015	    -16.38809039	      4.32327769	     -8.14192641	     -7.41757683	      1.65960411
      1.25483333	      3.31660384	      5.66070649	     -2.17087538	      0.24547860	      1.02972856	      0.24830159	     18.74689135	     -5.82968657	     -2.18836485	    -49.45237089	      6.19287498	    -16.86258973	     -1.69692334	     -4.15312823	      9.31463467	      2.68835456	     -4.59093938	      2.52645539	    -16.35593908	      4.26984596	     -8.13048413	     -7.34461945	      1.41248733
      1.25900000	      3.22955757	      5.59302769	     -2.06612516	      0.25054407	      1.02962956	      0.24820035	     19.03090643	     -5.70264721	     -2.24562361	    -48.15626683	      6.16236895	    -16.75042435	     -1.67795692	     -4.52470988	      9.23613264	      2.77581497	     -4.31678740	      2.61171949	    -16.30220103	      4.24302058	     -8.06797821	     -7.26988645	      1.25031212
      1.26316667	      3.15760938	      5.53041624	     -1.95588148	      0.25560224	      1.02951570	      0.24809506	     19.27962525	     -5.58860036	     -2.31649161	    -46.82384412	      6.08995121	    -16.67974529	     -1.65438500	     -4.91211843	      9.16272958	      2.88459462	     -4.04459557	      2.72470400	    -16.26261011	      4.21168799	     -8.02694602	     -7.20427010	      1.00676819
      1.26733333	      3.08787554	      5.47450775	     -1.85209757	      0.26066497	      1.02936684	      0.24800364	     19.51254668	     -5.48521491	     -2.38715864	    -45.46367218	      6.01463706	    -16.59721314	     -1.63011427	     -5.30143434	      9.09509908	      2.98949203	     -3.77180040	      2.83431248	    -16.21965140	      4.18241602	     -7.98834785	     -7.14432003	      0.77144356
      1.27150000	      3.05329081	      5.42007130	     -1.75041703	      0.26571202	      1.02922431	      0.24792130	     19.69077140	     -5.38814972	     -2.46392630	    -44.07175600	      5.90729135	    -16.56484788	     -1.58102321	     -5.73407409	      9.02890766	      3.12362778	     -3.48730981	      2.96871418	    -16.19274609	      4.13030087	     -8.00470375	     -7.09777332	      0.42628674
      1.27566667	      2.92865917	      5.37906119	     -1.66494034	      0.27079873	      1.02890407	      0.24785707	     19.96338594	     -5.30501945	     -2.53324840	    -42.67217754	      5.84744748	    -16.39434842	     -1.55754800	     -6.05335738	      8.97485021	      3.18963931	     -3.23208037	      3.07055243	    -16.14390056	      4.10933698	     -7.89879418	     -7.05538295	      0.30097681
      1.27983333	      2.88105213	      5.33488480	     -1.56370491	      0.27584361	      1.02867264	      0.24778569	     20.12015089	     -5.22533637	     -2.61670381	    -41.21660161	      5.72362267	    -16.32818686	     -1.49635473	     -6.45097424	      8.91647184	      3.31616237	     -2.99028181	      3.21052939	    -16.11460712	      4.05814998	     -7.89132823	     -7.00995239	     -0.01297591
      1.28400000	      2.76473547	      5.28854515	     -1.48263247	      0.28094616	      1.02830876	      0.24773273	     20.34099902	     -5.14475340	     -2.70533377	    -39.74461794	      5.64263520	    -16.13219954	     -1.46516574	     -6.76636856	      8.85546463	      3.37617732	     -2.76437048	      3.32485035	    -16.07221668	      4.03600256	     -7.78921601	     -6.95987632	     -0.13155242
      1.28816667	      2.70407487	      5.24711777	     -1.39256568	      0.28599682	      1.02799127	      0.24768685	     20.47760030	     -5.07012204	     -2.79013242	    -38.23002278	      5.50748492	    -16.02349104	     -1.38954587	     -7.13997475	      8.79805958	      3.49949209	     -2.54141632	      3.47835869	    -16.02870081	      3.98647963	     -7.76845349	     -6.91438436	     -0.40700596
      1.29233333	      2.60890500	      5.20821114	     -1.31355225	      0.29108709	      1.02759394	      0.24764390	     20.63715582	     -5.00365676	     -2.88933956	    -36.69679367	      5.40748149	    -15.80328295	     -1.33539960	     -7.46195406	      8.74422390	      3.56719793	     -2.34853824	      3.60723821	    -15.99110759	      3.95536936	     -7.69066290	     -6.86430851	     -0.54454761
      1.29650000	      2.50839789	      5.16192434	     -1.24177106	      0.29620730	      1.02715950	      0.24762432	     20.78308365	     -4.93090998	     -3.00600328	    -35.13682669	      5.29135217	    -15.57953751	     -1.28800692	     -7.78303705	      8.68119743	      3.63021200	     -2.14765343	      3.75797595	    -15.95475933	      3.93130342	     -7.60423640	     -6.81888220	     -0.67919079
